<svg width="27" height="37" viewBox="0 0 27 37" fill="none" xmlns="http://www.w3.org/2000/svg">
<path d="M10.6348 27.1147V24.0569C10.6348 23.2764 11.2722 22.6436 12.0584 22.6436H14.9326C15.3102 22.6436 15.6723 22.7925 15.9393 23.0576C16.2063 23.3226 16.3563 23.6821 16.3563 24.0569V27.1147C16.3539 27.4392 16.4821 27.7512 16.7124 27.9815C16.9427 28.2118 17.2561 28.3413 17.5829 28.3413H19.5438C20.4596 28.3437 21.3388 27.9842 21.9872 27.3421C22.6356 26.7001 23 25.8283 23 24.9191V16.2082C23 15.4738 22.6721 14.7772 22.1046 14.306L15.434 9.01718C14.2737 8.08987 12.6111 8.11981 11.4854 9.08829L4.96701 14.306C4.37274 14.7633 4.01755 15.4619 4 16.2082V24.9102C4 26.8052 5.54738 28.3413 7.45617 28.3413H9.37229C10.0512 28.3413 10.603 27.7975 10.6079 27.1235L10.6348 27.1147Z" fill="#BEBAB3"/>
</svg>
