<svg width="29" height="39" viewBox="0 0 29 39" fill="none" xmlns="http://www.w3.org/2000/svg">
<path d="M14.5 7.97925C19.7094 7.98057 23.8019 9.97037 24.7612 12.7822C24.9026 13.194 24.9764 13.6218 24.9764 14.0644C24.9764 14.1162 24.9764 14.1895 24.9764 14.2738C24.9764 15.304 24.9764 18.569 24.9764 19.575C24.9764 19.6236 24.9764 19.6891 24.9764 19.7661C24.9764 20.8546 24.9764 24.5921 24.9764 25.2768C24.9764 25.6967 24.9107 26.1043 24.7842 26.4957C23.8639 29.3413 19.7483 31.362 14.5 31.362C8.52791 31.362 4.02336 28.7465 4.02336 25.2768C4.02336 24.5921 4.02336 20.8546 4.02336 19.7661C4.02336 19.6891 4.02336 19.6236 4.02336 19.575C4.02336 18.569 4.02336 15.304 4.02336 14.2738C4.02336 14.1895 4.02336 14.1162 4.02336 14.0644C4.02336 10.596 8.52791 7.97925 14.5 7.97925Z" fill="#E3562A"/>
<path d="M3.38581 13.8526H3.39079C3.56333 10.1257 8.28123 7.34131 14.4997 7.34131C19.9308 7.34287 24.2974 9.44673 25.3651 12.5759C25.5071 12.992 25.5893 13.4206 25.6092 13.8526L25.6117 14.0643H25.6142V19.5752V19.7661V25.277C25.6142 25.7569 25.5389 26.2328 25.3906 26.6919C24.3641 29.8669 19.9875 32 14.4997 32C8.1635 32 3.38581 29.1097 3.38581 25.277V19.7661V19.5752V14.0643H3.3883L3.38581 13.8526ZM24.1579 12.988C23.2802 10.416 19.3085 8.61858 14.4997 8.61702C8.98324 8.61702 4.66152 11.0099 4.66152 14.0643C4.66152 17.1188 8.98324 19.5117 14.4997 19.5117C19.3553 19.5117 23.3344 17.6921 24.1772 15.0875C24.2843 14.7555 24.3385 14.411 24.3385 14.0643C24.3385 13.7012 24.2775 13.3393 24.1579 12.988ZM4.66152 25.277C4.66152 28.3314 8.98324 30.7243 14.4997 30.7243C19.3553 30.7243 23.3344 28.9048 24.1772 26.2998C24.2843 25.9678 24.3385 25.6236 24.3385 25.277V23.0023C22.5019 25.1429 18.8541 26.4891 14.4997 26.4891C10.1213 26.4891 6.48913 25.108 4.66152 22.9904V25.277ZM4.66152 19.7661C4.66152 22.8205 8.98324 25.2134 14.4997 25.2134C19.3553 25.2134 23.3344 23.3939 24.1772 20.7892C24.2843 20.4572 24.3385 20.1131 24.3385 19.7661V19.5752V17.3005C22.5019 19.4411 18.8541 20.7874 14.4997 20.7874C10.116 20.7874 6.48726 19.4005 4.66152 17.2787V19.5752V19.7661Z" fill="white"/>
</svg>
