<svg width="276" height="173" viewBox="0 0 276 173" fill="none" xmlns="http://www.w3.org/2000/svg">
<path d="M104.412 10.3913L107.553 7.27631L106.445 6.15936L104.44 4.13715L107.846 0.761963L109.851 2.78412L110.96 3.90112L114.101 0.789673L117.478 4.19611L114.337 7.30756L117.448 10.4503L114.042 13.8255L110.929 10.6863L107.788 13.7978L104.412 10.3913Z" fill="#EB6F5E"/>
<path d="M209.583 30.5645L213.325 26.8542L212.004 25.5238L209.616 23.1152L213.674 19.095L216.062 21.5036L217.382 22.834L221.123 19.128L225.146 23.1854L221.404 26.8914L225.11 30.6347L221.053 34.6548L217.345 30.9158L213.604 34.6219L209.583 30.5645Z" fill="#EB6F5E"/>
<path d="M75.1534 40.6908L80.4057 35.4822L78.5523 33.6146L75.1998 30.2332L80.8957 24.5896L84.2482 27.9709L86.1013 29.8386L91.3535 24.6359L97.0002 30.3318L91.7479 35.5345L96.9508 40.7894L91.2549 46.433L86.0493 41.184L80.7971 46.3867L75.1534 40.6908Z" fill="#F9B59E"/>
<path d="M159.503 49.2189C172.284 49.2189 182.645 38.8576 182.645 26.0764C182.645 13.2952 172.284 2.93396 159.503 2.93396C146.721 2.93396 136.36 13.2952 136.36 26.0764C136.36 38.8576 146.721 49.2189 159.503 49.2189Z" fill="#6A6AB0"/>
<path d="M151.858 29.7015L155.533 26.0561L154.236 24.749L151.89 22.3824L155.876 18.4326L158.223 20.7991L159.52 22.1062L163.196 18.465L167.148 22.4515L163.472 26.0927L167.113 29.7704L163.127 33.7203L159.483 30.0467L155.807 33.6879L151.858 29.7015Z" fill="white"/>
<path fill-rule="evenodd" clip-rule="evenodd" d="M140.83 65.4085L138.46 64.4796L141.962 55.5449L142.899 55.5491L140.83 65.4085Z" fill="#EB6F5E"/>
<path fill-rule="evenodd" clip-rule="evenodd" d="M126.924 64.8493L124.38 64.7845L124.624 55.1913L125.499 55.1743L126.924 64.8493Z" fill="#EB6F5E"/>
<path fill-rule="evenodd" clip-rule="evenodd" d="M122.966 116.56L125.336 117.489L121.834 126.424L120.896 126.42L122.966 116.56Z" fill="#EB6F5E"/>
<path fill-rule="evenodd" clip-rule="evenodd" d="M136.871 117.12L139.416 117.184L139.172 126.777L138.297 126.794L136.871 117.12Z" fill="#EB6F5E"/>
<path d="M156.582 77.2006H141.057V84.9629H156.582V77.2006Z" fill="#EF5A4C"/>
<path d="M213.566 88.9241C230.417 88.9241 243.41 94.0681 250.134 103.683C255.792 111.776 256.156 122.319 251.105 131.887C245.985 141.628 244.859 149.576 247.761 155.51C251.113 162.365 260.109 167.145 274.5 169.72C275.344 169.871 275.905 170.677 275.755 171.522C275.604 172.365 274.803 172.932 273.953 172.776C258.317 169.978 248.837 164.777 244.972 156.875C241.611 150.002 242.75 141.108 248.358 130.439C252.923 121.793 252.643 112.689 247.589 105.463C239.928 94.5063 222.984 89.9293 201.097 92.9159C200.255 93.0281 199.466 92.4368 199.35 91.5863C199.234 90.7373 199.829 89.955 200.679 89.8383C205.177 89.2258 209.485 88.9241 213.566 88.9241Z" fill="#EC6F5E"/>
<path fill-rule="evenodd" clip-rule="evenodd" d="M187.612 79.6113H200.916V105.208H186.06" fill="#EF5A4C"/>
<path d="M156.582 97.3826H141.057V105.145H156.582V97.3826Z" fill="#EF5A4C"/>
<path fill-rule="evenodd" clip-rule="evenodd" d="M176.757 111.355H156.582V70.9907H176.757C181.905 70.9907 186.079 75.1642 186.079 80.3126V102.033C186.079 107.181 181.905 111.355 176.757 111.355Z" fill="#EF5A4C"/>
<path d="M200.916 78.6108H187.612C187.55 78.6108 187.496 78.6354 187.437 78.6462C186.631 73.4691 182.156 69.4907 176.756 69.4907H156.582C155.753 69.4907 155.082 70.1626 155.082 70.9907V76.5005H141.057C140.67 76.5005 140.357 76.814 140.357 77.2007V84.9634C140.357 85.3501 140.67 85.6636 141.057 85.6636H155.082V96.6821H141.057C140.67 96.6821 140.357 96.9956 140.357 97.3823V105.145C140.357 105.532 140.67 105.845 141.057 105.845H155.082V111.355C155.082 112.183 155.753 112.855 156.582 112.855H176.756C181.245 112.855 185.102 110.109 186.739 106.208H200.916C201.468 106.208 201.916 105.761 201.916 105.208V79.6108C201.916 79.0581 201.468 78.6108 200.916 78.6108ZM141.757 84.2632V77.9009H155.082V84.2632H141.757ZM141.757 104.445V98.0825H155.082V104.445H141.757ZM184.579 102.033C184.579 106.346 181.07 109.855 176.756 109.855H158.082V72.4907H176.756C181.07 72.4907 184.579 75.9995 184.579 80.313V102.033ZM199.916 104.208H187.359C187.503 103.505 187.579 102.778 187.579 102.033V80.6041C187.59 80.6045 187.6 80.6108 187.612 80.6108H199.916V104.208Z" fill="white"/>
<path d="M147.721 79.0815H146.458V82.8721H147.721V79.0815Z" fill="white"/>
<path d="M147.721 99.9296H146.458V103.72H147.721V99.9296Z" fill="white"/>
<path d="M63.176 93.6263C46.3248 93.6263 33.332 88.4823 26.6082 78.8673C20.9494 70.7745 20.5855 60.2316 25.6364 50.6636C30.7569 40.9228 31.8826 32.974 28.9808 27.04C25.6288 20.1858 16.6323 15.4056 2.2417 12.8306C1.39799 12.6797 0.836286 11.8732 0.987134 11.0287C1.13798 10.1851 1.93847 9.61804 2.789 9.77416C18.4251 12.5721 27.9052 17.773 31.7697 25.6756C35.1308 32.5488 33.9915 41.4428 28.3835 52.1115C23.8186 60.7577 24.099 69.8618 29.1529 77.0874C36.8137 88.0441 53.7574 92.6212 75.6443 89.6345C76.4865 89.5223 77.2756 90.1136 77.3916 90.9641C77.5076 91.8131 76.9125 92.5954 76.0627 92.7122C71.5645 93.3246 67.2566 93.6263 63.176 93.6263Z" fill="#EC6F5E"/>
<path fill-rule="evenodd" clip-rule="evenodd" d="M89.6802 104.029H76.377V78.4326H89.6802" fill="#EF5A4C"/>
<path fill-rule="evenodd" clip-rule="evenodd" d="M99.1476 70.9907H119.323V111.355H99.1476C93.9992 111.355 89.8257 107.181 89.8257 102.033V80.3126C89.8257 75.1642 93.9992 70.9907 99.1476 70.9907Z" fill="#EF5A4C"/>
<path fill-rule="evenodd" clip-rule="evenodd" d="M119.323 69.4907H99.148C94.1793 69.4907 89.9927 72.8606 88.7271 77.4321H76.3765C75.8238 77.4321 75.3765 77.8794 75.3765 78.4321V104.029C75.3765 104.582 75.8238 105.029 76.3765 105.029H88.7569C90.0601 109.542 94.2203 112.855 99.148 112.855H119.323C120.151 112.855 120.823 112.183 120.823 111.355V70.9907C120.823 70.1626 120.151 69.4907 119.323 69.4907ZM77.3765 103.029V79.4321H88.3702C88.3467 79.7234 88.3257 80.0156 88.3257 80.313V102.033C88.3257 102.369 88.3463 102.7 88.376 103.029H77.3765V103.029ZM108.13 109.855H99.148C94.8345 109.855 91.3257 106.346 91.3257 102.033V80.313C91.3257 75.9995 94.8345 72.4907 99.148 72.4907H108.13V109.855ZM117.823 109.855H110.13V72.4907H117.823V109.855Z" fill="white"/>
</svg>
