<svg width="126" height="162" viewBox="0 0 126 162" fill="none" xmlns="http://www.w3.org/2000/svg">
<path d="M87.817 49.895C85.9254 39.2961 79.2678 34.2927 63.6622 32.8036C52.4852 31.7025 49.7803 30.175 49.0036 25.8224C48.4555 22.7513 49.5996 18.6634 55.9925 17.5225C63.6007 16.1647 65.6894 20.4051 66.8994 23.0434L81.0211 20.5232C78.9006 12.9045 73.127 6.06091 60.437 6.39349L59.296 0L47.4653 2.11133L48.6314 8.64557C39.5157 12.1158 33.2299 19.6597 35.0283 29.7364C36.6975 39.0894 42.7127 44.4172 60.3784 46.2534C70.0784 47.2399 73.091 49.1663 73.9619 54.046C74.6724 58.0275 72.9481 61.9799 65.5905 63.293C59.6444 64.3541 55.1086 61.8214 53.0478 56.8905L38.9381 59.4086C41.4266 68.8809 49.2908 74.7012 61.0913 74.4024L62.5213 82.4154L74.4395 80.2885L73.0037 72.2438C83.609 68.663 89.8203 61.1202 87.817 49.895Z" fill="#6A6AB0"/>
<path d="M23.359 65.9007C22.5268 61.2379 19.598 59.0367 12.7325 58.3816C7.81541 57.8972 6.62547 57.2252 6.28367 55.3104C6.04258 53.9592 6.54588 52.1608 9.35838 51.6589C12.7054 51.0616 13.6244 52.9271 14.1567 54.0878L20.3692 52.979C19.4364 49.6273 16.8965 46.6166 11.3136 46.7629L10.8116 43.9501L5.60691 44.879L6.11998 47.7537C2.1096 49.2803 -0.655781 52.5991 0.135356 57.0322C0.869731 61.147 3.51609 63.4908 11.2878 64.2986C15.5552 64.7327 16.8806 65.5801 17.2637 67.7269C17.5763 69.4785 16.8176 71.2173 13.5808 71.7949C10.9649 72.2618 8.96946 71.1476 8.06285 68.9783L1.85545 70.0861C2.9503 74.2533 6.41001 76.8138 11.6014 76.6824L12.2306 80.2076L17.4739 79.2719L16.8421 75.7327C21.5078 74.1574 24.2403 70.8391 23.359 65.9007Z" fill="#EC6F5E"/>
<path d="M124.435 37.4094C123.619 32.8389 120.748 30.6814 114.019 30.0393C109.199 29.5645 108.033 28.9058 107.698 27.0289C107.462 25.7045 107.955 23.9418 110.712 23.4498C113.992 22.8643 114.893 24.6928 115.415 25.8305L121.504 24.7437C120.59 21.4584 118.1 18.5073 112.628 18.6508L112.136 15.8937L107.035 16.8042L107.537 19.6219C103.607 21.1183 100.896 24.3714 101.671 28.7167C102.391 32.7498 104.985 35.0473 112.603 35.8391C116.786 36.2645 118.085 37.0952 118.46 39.1994C118.767 40.9163 118.023 42.6206 114.85 43.1868C112.286 43.6444 110.33 42.5523 109.442 40.426L103.357 41.5118C104.431 45.5965 107.822 48.1063 112.91 47.9774L113.527 51.4328L118.666 50.5156L118.047 47.0466C122.62 45.5025 125.299 42.2499 124.435 37.4094Z" fill="#EC6F5E"/>
<path d="M107.821 86.7321C99.6544 86.7343 93.2384 89.8537 91.7345 94.2619C91.5128 94.9075 91.3971 95.5782 91.3971 96.2722C91.3971 96.3535 91.3971 96.4682 91.3971 96.6005C91.3971 98.2155 91.3971 103.334 91.3971 104.911C91.3971 104.987 91.3971 105.09 91.3971 105.211C91.3971 106.797 91.3971 111.965 91.3971 113.551C91.3971 113.627 91.3971 113.73 91.3971 113.85C91.3971 115.436 91.3971 120.605 91.3971 122.19C91.3971 122.266 91.3971 122.369 91.3971 122.49C91.3971 124.196 91.3971 130.056 91.3971 131.129C91.3971 131.787 91.5001 132.426 91.6984 133.04C93.1412 137.501 99.5934 140.669 107.821 140.669C117.184 140.669 124.246 136.569 124.246 131.129C124.246 130.056 124.246 124.196 124.246 122.49C124.246 122.369 124.246 122.266 124.246 122.19C124.246 120.605 124.246 115.436 124.246 113.85C124.246 113.73 124.246 113.627 124.246 113.551C124.246 111.965 124.246 106.797 124.246 105.211C124.246 105.09 124.246 104.987 124.246 104.911C124.246 103.334 124.246 98.2155 124.246 96.6005C124.246 96.4682 124.246 96.3535 124.246 96.2722C124.246 90.8345 117.184 86.7321 107.821 86.7321Z" fill="#EF6B5D"/>
<path d="M125.226 95.7424C124.8 89.9992 117.461 85.7321 107.822 85.7321C99.3073 85.7341 92.4615 89.0324 90.7877 93.9382C90.5865 94.5266 90.4625 95.131 90.4166 95.7414C90.4039 95.8058 90.3971 95.8723 90.3971 95.9401V96.2722V96.6042V104.911V105.211V113.551V113.85V122.19V122.49V131.129C90.3971 131.882 90.5153 132.628 90.7477 133.348C92.3571 138.325 99.2184 141.669 107.822 141.669C117.755 141.669 125.246 137.138 125.246 131.129V122.49V122.19V113.85V113.551V105.211V104.911V96.6042V96.2722V95.9401C125.246 95.8727 125.239 95.8063 125.226 95.7424ZM123.246 104.911V105.211C123.246 110 116.47 113.751 107.822 113.751C100.21 113.751 93.9713 110.899 92.65 106.814C92.4821 106.294 92.3971 105.755 92.3971 105.211V104.911V101.346C95.2765 104.702 100.995 106.812 107.822 106.812C114.696 106.812 120.384 104.636 123.246 101.308V104.911ZM92.6803 94.5847C94.0563 90.5519 100.283 87.7341 107.822 87.7321C116.47 87.7321 123.246 91.4836 123.246 96.2722C123.246 101.061 116.47 104.812 107.822 104.812C100.21 104.812 93.9713 101.96 92.65 97.8762C92.4821 97.3557 92.3971 96.8156 92.3971 96.2722C92.3971 95.7023 92.4928 95.1349 92.6803 94.5847ZM123.246 131.129C123.246 135.918 116.47 139.669 107.822 139.669C100.21 139.669 93.9713 136.817 92.65 132.733C92.4821 132.213 92.3971 131.673 92.3971 131.129V127.563C95.2765 130.919 100.995 133.03 107.822 133.03C114.686 133.03 120.38 130.865 123.246 127.545V131.129ZM123.246 122.19V122.49C123.246 127.278 116.47 131.03 107.822 131.03C100.21 131.03 93.9713 128.177 92.65 124.093C92.4821 123.573 92.3971 123.033 92.3971 122.49V122.19V118.924C95.2765 122.28 100.995 124.39 107.822 124.39C114.686 124.39 120.38 122.225 123.246 118.905V122.19ZM123.246 113.551V113.85C123.246 118.639 116.47 122.39 107.822 122.39C100.21 122.39 93.9713 119.538 92.65 115.454C92.4821 114.934 92.3971 114.394 92.3971 113.85V113.551V110.284C95.2765 113.641 100.995 115.751 107.822 115.751C114.686 115.751 120.38 113.586 123.246 110.266V113.551Z" fill="white"/>
<path d="M67.8214 106.732C59.6544 106.734 53.2384 109.854 51.7345 114.262C51.5128 114.907 51.3971 115.578 51.3971 116.272C51.3971 116.353 51.3971 116.468 51.3971 116.6C51.3971 118.215 51.3971 123.334 51.3971 124.911C51.3971 124.987 51.3971 125.09 51.3971 125.211C51.3971 126.797 51.3971 131.965 51.3971 133.551C51.3971 133.627 51.3971 133.73 51.3971 133.85C51.3971 135.436 51.3971 140.605 51.3971 142.19C51.3971 142.266 51.3971 142.369 51.3971 142.49C51.3971 144.196 51.3971 150.056 51.3971 151.129C51.3971 151.787 51.5001 152.426 51.6984 153.04C53.1412 157.501 59.5934 160.669 67.8214 160.669C77.1842 160.669 84.2462 156.569 84.2462 151.129C84.2462 150.056 84.2462 144.196 84.2462 142.49C84.2462 142.369 84.2462 142.266 84.2462 142.19C84.2462 140.605 84.2462 135.436 84.2462 133.85C84.2462 133.73 84.2462 133.627 84.2462 133.551C84.2462 131.965 84.2462 126.797 84.2462 125.211C84.2462 125.09 84.2462 124.987 84.2462 124.911C84.2462 123.334 84.2462 118.215 84.2462 116.6C84.2462 116.468 84.2462 116.353 84.2462 116.272C84.2462 110.834 77.1842 106.732 67.8214 106.732Z" fill="#EF6B5D"/>
<path d="M85.2262 115.742C84.8004 109.999 77.4606 105.732 67.8219 105.732C59.3073 105.734 52.4615 109.032 50.7877 113.938C50.5865 114.526 50.4625 115.131 50.4166 115.741C50.4039 115.806 50.3971 115.872 50.3971 115.94V116.272V116.604V124.911V125.211V133.551V133.85V142.19V142.49V151.129C50.3971 151.882 50.5153 152.628 50.7477 153.348C52.3571 158.325 59.2184 161.669 67.8219 161.669C77.7555 161.669 85.2457 157.138 85.2457 151.129V142.49V142.19V133.85V133.551V125.211V124.911V116.604V116.272V115.94C85.2457 115.873 85.2389 115.806 85.2262 115.742ZM83.2457 124.911V125.211C83.2457 130 76.4703 133.751 67.8219 133.751C60.2096 133.751 53.9713 130.899 52.65 126.814C52.4821 126.294 52.3971 125.755 52.3971 125.211V124.911V121.346C55.2765 124.702 60.9952 126.812 67.8219 126.812C74.6959 126.812 80.3844 124.636 83.2457 121.308V124.911ZM52.6803 114.585C54.0563 110.552 60.2828 107.734 67.8219 107.732C76.4703 107.732 83.2457 111.484 83.2457 116.272C83.2457 121.061 76.4703 124.812 67.8219 124.812C60.2096 124.812 53.9713 121.96 52.65 117.876C52.4821 117.356 52.3971 116.816 52.3971 116.272C52.3971 115.702 52.4928 115.135 52.6803 114.585ZM83.2457 151.129C83.2457 155.918 76.4703 159.669 67.8219 159.669C60.2096 159.669 53.9713 156.817 52.65 152.733C52.4821 152.213 52.3971 151.673 52.3971 151.129V147.563C55.2765 150.919 60.9952 153.03 67.8219 153.03C74.6862 153.03 80.3805 150.865 83.2457 147.545V151.129ZM83.2457 142.19V142.49C83.2457 147.278 76.4703 151.03 67.8219 151.03C60.2096 151.03 53.9713 148.177 52.65 144.093C52.4821 143.573 52.3971 143.033 52.3971 142.49V142.19V138.924C55.2765 142.28 60.9952 144.39 67.8219 144.39C74.6862 144.39 80.3805 142.225 83.2457 138.905V142.19ZM83.2457 133.551V133.85C83.2457 138.639 76.4703 142.39 67.8219 142.39C60.2096 142.39 53.9713 139.538 52.65 135.454C52.4821 134.934 52.3971 134.394 52.3971 133.85V133.551V130.284C55.2765 133.641 60.9952 135.751 67.8219 135.751C74.6862 135.751 80.3805 133.586 83.2457 130.266V133.551Z" fill="white"/>
<path d="M20.5605 106.132C12.3936 106.134 5.97754 109.254 4.47363 113.662C4.25195 114.308 4.13623 114.978 4.13623 115.672C4.13623 115.753 4.13623 115.868 4.13623 116C4.13623 117.616 4.13623 122.734 4.13623 124.312C4.13623 124.388 4.13623 124.49 4.13623 124.611C4.13623 126.318 4.13623 132.177 4.13623 133.25C4.13623 133.909 4.23926 134.548 4.4375 135.161C5.88037 139.623 12.3325 142.791 20.5605 142.791C29.9233 142.791 36.9854 138.69 36.9854 133.25C36.9854 132.177 36.9854 126.318 36.9854 124.611C36.9854 124.49 36.9854 124.388 36.9854 124.312C36.9854 122.734 36.9854 117.616 36.9854 116C36.9854 115.868 36.9854 115.753 36.9854 115.672C36.9854 110.235 29.9233 106.132 20.5605 106.132Z" fill="#EF6B5D"/>
<path d="M37.9849 115.34H37.9771C37.7065 109.497 30.3101 105.132 20.561 105.132C12.0464 105.135 5.20068 108.433 3.52686 113.339C3.3042 113.991 3.17529 114.663 3.14404 115.34L3.14014 115.672H3.13623V124.312V124.611V133.251C3.13623 134.003 3.25439 134.749 3.48682 135.469C5.09619 140.447 11.9575 143.791 20.561 143.791C30.4946 143.791 37.9849 139.26 37.9849 133.251V124.611V124.312V115.672H37.981L37.9849 115.34ZM5.41943 113.985C6.79541 109.952 13.022 107.135 20.561 107.132C29.2095 107.132 35.9849 110.884 35.9849 115.672C35.9849 120.461 29.2095 124.212 20.561 124.212C12.9487 124.212 6.71045 121.36 5.38916 117.276C5.22119 116.756 5.13623 116.216 5.13623 115.672C5.13623 115.103 5.23193 114.535 5.41943 113.985ZM35.9849 133.251C35.9849 138.039 29.2095 141.791 20.561 141.791C12.9487 141.791 6.71045 138.938 5.38916 134.854C5.22119 134.334 5.13623 133.794 5.13623 133.251V129.685C8.01562 133.041 13.7344 135.151 20.561 135.151C27.4253 135.151 33.1196 132.986 35.9849 129.666V133.251ZM35.9849 124.611C35.9849 129.4 29.2095 133.151 20.561 133.151C12.9487 133.151 6.71045 130.299 5.38916 126.215C5.22119 125.695 5.13623 125.155 5.13623 124.611V124.312V120.746C8.01562 124.102 13.7344 126.212 20.561 126.212C27.4336 126.212 33.1226 124.038 35.9849 120.711V124.312V124.611Z" fill="white"/>
</svg>
