<svg width="135" height="151" viewBox="0 0 135 151" fill="none" xmlns="http://www.w3.org/2000/svg">
<path d="M72.1405 12.7859C68.9933 8.52613 65.3085 4.67572 61.187 1.41783C58.8209 -0.455014 55.4994 -0.474072 53.1105 1.37032C49.0742 4.48911 45.4468 8.17467 42.3145 12.254C46.9229 13.7586 52.2581 14.5776 57.8151 14.6098C62.8364 14.6382 67.8022 14.0031 72.1405 12.7859Z" fill="#F9B59E"/>
<path d="M81.7448 36.5984C81.2703 32.1479 80.2161 27.6754 77.843 22.1437C76.6718 19.4149 75.0194 16.9155 73.3363 14.4693C73.2286 14.5672 73.1028 14.6473 72.9553 14.6903C68.4556 15.9858 63.3126 16.6656 58.0674 16.6586C57.9795 16.6586 57.8923 16.6573 57.8041 16.657C51.776 16.6233 45.9805 15.6975 41.0273 13.9846C39.2344 16.4996 37.6178 19.1444 36.2317 21.9071C33.0537 28.2399 32.1063 34.9535 31.8113 42.2082C31.7102 42.5935 31.6392 42.9899 31.6392 43.4066V50.0468L31.6074 51.1044C31.6054 51.1719 31.6292 51.2318 31.6392 51.2962V91.7152C31.6392 93.7781 33.3114 95.4507 35.3746 95.4507H41.1542L41.006 95.9282H41.3704C41.4241 96.6357 41.5238 97.3375 41.6626 98.0134L48.3699 115.736L67.5862 115.678L72.9574 99.4836C73.2499 98.3853 73.6117 96.911 73.7737 95.5225C73.8856 95.4995 73.9978 95.4718 74.1106 95.4507H78.5924C80.6556 95.4507 82.3276 93.7781 82.3276 91.7152V43.4066C82.3276 39.3497 82.1157 37.3884 81.7448 36.5984Z" fill="#F9B59E"/>
<path d="M57.7 58.5114C57.6943 58.5114 57.6883 58.5114 57.6823 58.5114C55.7379 58.5114 54.1796 60.4004 52.9007 69.5519C52.0192 75.8464 51.5086 84.2031 51.4592 93.0847C51.4018 103.49 51.857 127.693 57.3139 127.724C57.3199 127.724 57.3259 127.724 57.3319 127.724C59.2763 127.724 60.8326 125.835 62.1115 116.683C62.9926 110.389 63.5036 102.031 63.5531 93.1509C63.6104 82.7459 63.1569 58.5421 57.7 58.5114Z" fill="#EF5B4B"/>
<path d="M97.5897 67.867L82.0842 48.5568C81.5238 47.8598 80.5042 47.747 79.8032 48.3073C79.433 48.6048 79.2399 49.031 79.2122 49.4706L79.1993 49.4696L76.6985 88.7978L76.7124 88.7988C76.7006 88.9835 76.7064 89.1721 76.7618 89.3602L85.3948 118.619C85.5988 119.305 86.2264 119.778 86.9432 119.781C86.951 119.781 86.959 119.781 86.9669 119.781C90.8003 119.781 93.3684 114.894 93.3842 111.678C93.4277 110.789 94.8356 101.263 96.077 92.8589C98.0848 79.2848 99.0293 72.7963 99.0332 71.9528C99.0411 70.4608 98.5243 69.0055 97.5897 67.867Z" fill="#EF5B4B"/>
<path d="M35.5637 91.6154L34.2527 51.0833L34.2367 51.0838C34.2228 50.6361 34.0403 50.197 33.6687 49.8883C32.9814 49.317 31.9579 49.4092 31.3838 50.0993L15.4899 69.2272C14.5297 70.3677 13.9971 71.8191 13.9971 73.4823L18.0798 114.14C18.0601 117.672 20.9193 120.56 24.4495 120.58C24.4535 120.58 24.4557 120.58 24.4595 120.58C25.1506 120.58 25.7644 120.144 25.9921 119.491L35.4746 92.2004C35.5416 92.0065 35.5657 91.8092 35.5591 91.6155L35.5637 91.6154Z" fill="#EF5B4B"/>
<path d="M72.2499 43.0116C74.2204 35.2745 69.5458 27.4049 61.8087 25.4343C54.0716 23.4638 46.202 28.1385 44.2315 35.8756C42.2609 43.6127 46.9356 51.4824 54.6726 53.4529C62.4097 55.4235 70.2793 50.7487 72.2499 43.0116Z" fill="#EF5B4B"/>
<path d="M70.4257 39.1319C69.9942 38.4487 69.0853 38.2418 68.3961 38.6735C67.713 39.1062 67.5073 40.0159 67.9369 40.701L67.939 40.7031C68.218 41.1446 68.6973 41.3871 69.1862 41.3871C69.4535 41.3871 69.7249 41.3148 69.9664 41.1614C70.6537 40.7298 70.8593 39.8199 70.4257 39.1319Z" fill="white"/>
<path d="M48.2476 38.2982C47.8158 37.6142 46.907 37.4073 46.218 37.839C45.5349 38.2715 45.329 39.1813 45.7588 39.8665C45.9684 40.2001 46.2952 40.4307 46.6772 40.518C46.7881 40.5426 46.8972 40.5545 47.006 40.5545C47.2814 40.5545 47.5507 40.4773 47.79 40.3278C48.4733 39.8951 48.6791 38.9854 48.2476 38.2982Z" fill="white"/>
<path d="M67.4736 31.1711C67.2657 30.8385 66.9389 30.6068 66.5548 30.5197C66.1687 30.4306 65.7749 30.4989 65.444 30.7099C65.1113 30.9198 64.8817 31.2464 64.7946 31.6275C64.7075 32.0107 64.7746 32.4058 64.9848 32.7383C65.1944 33.071 65.5212 33.3018 65.9053 33.3877C66.0141 33.4126 66.1232 33.4255 66.232 33.4255C66.5074 33.4255 66.7767 33.3482 67.0144 33.1978C67.3468 32.9879 67.5765 32.6611 67.6635 32.28C67.7507 31.8979 67.6833 31.5039 67.4736 31.1711Z" fill="white"/>
<path d="M51.2018 46.2639C50.994 45.9313 50.6672 45.6995 50.283 45.6124C49.5048 45.4353 48.7028 45.9273 48.5206 46.7223C48.4355 47.1054 48.5029 47.4994 48.7128 47.831C48.9227 48.1637 49.2495 48.3954 49.6336 48.4816C49.7424 48.5054 49.8513 48.5182 49.96 48.5182C50.2354 48.5182 50.5047 48.4409 50.7424 48.2906C51.075 48.0806 51.3046 47.7539 51.3918 47.3728C51.4789 46.9906 51.4114 46.5966 51.2018 46.2639Z" fill="white"/>
<path d="M59.7554 27.6278C59.3238 26.9418 58.411 26.7399 57.7241 27.1666C57.0409 27.5993 56.8349 28.5089 57.2666 29.1961C57.5459 29.6386 58.0249 29.8812 58.514 29.8812C58.7814 29.8812 59.0525 29.8079 59.2941 29.6554H59.2961C59.9792 29.2228 60.1852 28.313 59.7554 27.6278Z" fill="white"/>
<path d="M58.92 49.8043C58.4885 49.1201 57.5773 48.9122 56.8925 49.3459C56.2053 49.7774 55.9993 50.6874 56.431 51.3734C56.6408 51.706 56.9676 51.9377 57.3497 52.0237C57.4585 52.0486 57.5696 52.0615 57.6784 52.0615C57.9518 52.0615 58.2211 51.9842 58.4588 51.8338C59.1457 51.402 59.3536 50.4923 58.92 49.8043Z" fill="white"/>
<path d="M65.9649 46.2025C65.5786 46.1133 65.1848 46.1818 64.854 46.3927C64.5214 46.6025 64.2917 46.9292 64.2046 47.3103C64.1175 47.6925 64.1848 48.0865 64.3948 48.4191C64.6027 48.7518 64.9292 48.9834 65.3134 49.0706C65.4224 49.0954 65.5313 49.1072 65.64 49.1072C66.3092 49.1072 66.9191 48.6439 67.0756 47.9627V47.9608C67.2538 47.1698 66.7548 46.3807 65.9649 46.2025Z" fill="white"/>
<path d="M58.2407 47.7933C62.8522 47.7933 66.5906 44.055 66.5906 39.4435C66.5906 34.832 62.8522 31.0937 58.2407 31.0937C53.6292 31.0937 49.8909 34.832 49.8909 39.4435C49.8909 44.055 53.6292 47.7933 58.2407 47.7933Z" fill="white"/>
<path d="M51.7917 30.581C51.5841 30.2485 51.2573 30.0168 50.8729 29.9297C50.0988 29.7525 49.2928 30.2446 49.1107 31.0405C48.9325 31.8314 49.4317 32.6206 50.2216 32.7988C50.3305 32.8235 50.4412 32.8364 50.5501 32.8364C50.8254 32.8364 51.0948 32.7582 51.3324 32.6086C51.6651 32.3987 51.8947 32.0721 51.9819 31.6879C52.0691 31.3068 52.0016 30.9138 51.7917 30.581Z" fill="white"/>
<path d="M116.395 74.3442C108.228 74.3464 101.812 77.4658 100.308 81.874C100.086 82.5196 99.9707 83.1903 99.9707 83.8842C99.9707 83.9655 99.9707 84.0803 99.9707 84.2126C99.9707 85.8276 99.9707 90.9464 99.9707 92.5237C99.9707 92.5996 99.9707 92.7024 99.9707 92.8232C99.9707 94.4088 99.9707 99.5771 99.9707 101.163C99.9707 101.239 99.9707 101.342 99.9707 101.463C99.9707 103.048 99.9707 108.217 99.9707 109.802C99.9707 109.878 99.9707 109.981 99.9707 110.102C99.9707 111.808 99.9707 117.668 99.9707 118.741C99.9707 119.399 100.074 120.039 100.272 120.652C101.715 125.113 108.167 128.281 116.395 128.281C125.758 128.281 132.82 124.181 132.82 118.741C132.82 117.668 132.82 111.808 132.82 110.102C132.82 109.981 132.82 109.878 132.82 109.802C132.82 108.217 132.82 103.048 132.82 101.463C132.82 101.342 132.82 101.239 132.82 101.163C132.82 99.5771 132.82 94.4088 132.82 92.8232C132.82 92.7024 132.82 92.5996 132.82 92.5237C132.82 90.9464 132.82 85.8276 132.82 84.2126C132.82 84.0803 132.82 83.9655 132.82 83.8842C132.82 78.4466 125.758 74.3442 116.395 74.3442Z" fill="#EF6B5D"/>
<path d="M133.8 83.3545C133.374 77.6113 126.034 73.3442 116.396 73.3442C107.881 73.3462 101.035 76.6445 99.3613 81.5503C99.1602 82.1386 99.0361 82.7431 98.9902 83.3535C98.9775 83.4179 98.9707 83.4843 98.9707 83.5522V83.8842V84.2163V92.5234V92.8232V101.163V101.462V109.802V110.102V118.741C98.9707 119.494 99.0889 120.24 99.3213 120.96C100.931 125.937 107.792 129.281 116.396 129.281C126.329 129.281 133.819 124.75 133.819 118.741V110.102V109.802V101.462V101.163V92.8232V92.5234V84.2163V83.8842V83.5522C133.819 83.4848 133.812 83.4184 133.8 83.3545ZM131.819 92.5234V92.8232C131.819 97.6118 125.044 101.363 116.396 101.363C108.783 101.363 102.545 98.5107 101.224 94.4262C101.056 93.9062 100.971 93.3672 100.971 92.8232V92.5234V88.9577C103.85 92.3137 109.569 94.4243 116.396 94.4243C123.27 94.4243 128.958 92.2479 131.819 88.9203V92.5234ZM101.254 82.1967C102.63 78.164 108.856 75.3462 116.396 75.3442C125.044 75.3442 131.819 79.0957 131.819 83.8842C131.819 88.6728 125.044 92.4243 116.396 92.4243C108.783 92.4243 102.545 89.5717 101.224 85.4883C101.056 84.9677 100.971 84.4277 100.971 83.8842C100.971 83.3144 101.066 82.747 101.254 82.1967ZM131.819 118.741C131.819 123.53 125.044 127.281 116.396 127.281C108.783 127.281 102.545 124.429 101.224 120.345C101.056 119.825 100.971 119.285 100.971 118.741V115.175C103.85 118.531 109.569 120.642 116.396 120.642C123.26 120.642 128.954 118.477 131.819 115.157V118.741ZM131.819 109.802V110.102C131.819 114.891 125.044 118.642 116.396 118.642C108.783 118.642 102.545 115.79 101.224 111.706C101.056 111.185 100.971 110.645 100.971 110.102V109.802V106.536C103.85 109.892 109.569 112.002 116.396 112.002C123.26 112.002 128.954 109.837 131.819 106.517V109.802ZM131.819 101.163V101.462C131.819 106.251 125.044 110.002 116.396 110.002C108.783 110.002 102.545 107.15 101.224 103.066C101.056 102.546 100.971 102.006 100.971 101.462V101.163V97.8965C103.85 101.253 109.569 103.363 116.396 103.363C123.26 103.363 128.954 101.198 131.819 97.8781V101.163Z" fill="white"/>
<path d="M120.244 16.3947L110.981 21.5711L105.975 30.9266L100.799 21.6642L91.4434 16.6581L100.706 11.4817L105.712 2.12617L110.888 11.3886L120.244 16.3947Z" fill="#F9B59E"/>
<path d="M134.439 35.0475L130.811 37.0752L128.85 40.7398L126.822 37.1117L123.157 35.1508L126.785 33.1231L128.746 29.4585L130.774 33.0866L134.439 35.0475Z" fill="#EB6F5E"/>
<path d="M90.6362 112.861C82.4692 112.863 76.0532 115.983 74.5493 120.391C74.3276 121.036 74.2119 121.707 74.2119 122.401C74.2119 122.482 74.2119 122.597 74.2119 122.729C74.2119 124.344 74.2119 129.463 74.2119 131.04C74.2119 131.116 74.2119 131.219 74.2119 131.34C74.2119 133.046 74.2119 138.906 74.2119 139.979C74.2119 140.637 74.3149 141.276 74.5132 141.89C75.9561 146.351 82.4082 149.519 90.6362 149.519C99.999 149.519 107.061 145.419 107.061 139.979C107.061 138.906 107.061 133.046 107.061 131.34C107.061 131.219 107.061 131.116 107.061 131.04C107.061 129.463 107.061 124.344 107.061 122.729C107.061 122.597 107.061 122.482 107.061 122.401C107.061 116.963 99.999 112.861 90.6362 112.861Z" fill="#EF6B5D"/>
<path d="M108.061 122.069H108.053C107.782 116.226 100.386 111.861 90.6367 111.861C82.1221 111.863 75.2764 115.162 73.6025 120.067C73.3799 120.72 73.251 121.392 73.2197 122.069L73.2158 122.401H73.2119V131.04V131.34V139.979C73.2119 140.732 73.3301 141.478 73.5625 142.198C75.1719 147.175 82.0332 150.52 90.6367 150.52C100.57 150.52 108.061 145.988 108.061 139.979V131.34V131.04V122.401H108.057L108.061 122.069ZM75.4951 120.713C76.8711 116.681 83.0977 113.863 90.6367 113.861C99.2852 113.861 106.061 117.612 106.061 122.401C106.061 127.189 99.2852 130.941 90.6367 130.941C83.0244 130.941 76.7861 128.088 75.4648 124.005C75.2969 123.484 75.2119 122.944 75.2119 122.401C75.2119 121.832 75.3076 121.264 75.4951 120.713ZM106.061 139.979C106.061 144.768 99.2852 148.52 90.6367 148.52C83.0244 148.52 76.7861 145.667 75.4648 141.583C75.2969 141.062 75.2119 140.523 75.2119 139.979V136.413C78.0913 139.769 83.8101 141.88 90.6367 141.88C97.501 141.88 103.195 139.715 106.061 136.395V139.979ZM106.061 131.34C106.061 136.128 99.2852 139.88 90.6367 139.88C83.0244 139.88 76.7861 137.027 75.4648 132.944C75.2969 132.423 75.2119 131.884 75.2119 131.34V131.04V127.474C78.0913 130.83 83.8101 132.941 90.6367 132.941C97.5093 132.941 103.198 130.767 106.061 127.44V131.04V131.34Z" fill="white"/>
<path d="M17.4238 94.2393C9.25684 94.2414 2.84082 97.3611 1.33691 101.769C1.11523 102.415 0.999512 103.085 0.999512 103.779C0.999512 103.861 0.999512 103.975 0.999512 104.108C0.999512 105.723 0.999512 110.842 0.999512 112.419C0.999512 112.495 0.999512 112.598 0.999512 112.718C0.999512 114.304 0.999512 119.472 0.999512 121.058C0.999512 121.134 0.999512 121.237 0.999512 121.358C0.999512 122.943 0.999512 128.112 0.999512 129.697C0.999512 129.773 0.999512 129.876 0.999512 129.997C0.999512 131.703 0.999512 137.563 0.999512 138.636C0.999512 139.295 1.10254 139.934 1.30078 140.547C2.74365 145.008 9.1958 148.176 17.4238 148.176C26.7866 148.176 33.8486 144.076 33.8486 138.636C33.8486 137.563 33.8486 131.703 33.8486 129.997C33.8486 129.876 33.8486 129.773 33.8486 129.697C33.8486 128.112 33.8486 122.943 33.8486 121.358C33.8486 121.237 33.8486 121.134 33.8486 121.058C33.8486 119.472 33.8486 114.304 33.8486 112.718C33.8486 112.598 33.8486 112.495 33.8486 112.419C33.8486 110.842 33.8486 105.723 33.8486 104.108C33.8486 103.975 33.8486 103.861 33.8486 103.779C33.8486 98.3418 26.7866 94.2393 17.4238 94.2393Z" fill="#EF6B5D"/>
<path d="M34.8291 103.249C34.4033 97.5063 27.0635 93.2392 17.4238 93.2392C8.90918 93.2417 2.06445 96.54 0.390625 101.444C0.189453 102.032 0.0654297 102.637 0.0195312 103.249C0.00683595 103.313 0 103.379 0 103.447V103.779V104.111V112.419V112.718V121.058V121.358V129.698V129.997V138.636C0 139.391 0.117187 140.137 0.349609 140.855C1.95996 145.832 8.82129 149.176 17.4238 149.176C27.3574 149.176 34.8486 144.645 34.8486 138.636V129.997V129.698V121.358V121.058V112.718V112.419V104.111V103.779V103.447C34.8486 103.38 34.8418 103.313 34.8291 103.249ZM32.8486 112.419V112.718C32.8486 117.507 26.0732 121.258 17.4238 121.258C9.8125 121.258 3.57324 118.406 2.25195 114.322C2.08496 113.804 2 113.264 2 112.718V112.419V108.853C4.88037 112.209 10.5981 114.319 17.4238 114.319C24.2979 114.319 29.9868 112.143 32.8486 108.815V112.419ZM2.2832 102.092C3.65918 98.0595 9.88477 95.2417 17.4238 95.2392C26.0732 95.2392 32.8486 98.9907 32.8486 103.779C32.8486 108.568 26.0732 112.319 17.4238 112.319C9.8125 112.319 3.57324 109.467 2.25195 105.383C2.08496 104.865 2 104.325 2 103.779C2 103.207 2.09473 102.641 2.2832 102.092ZM32.8486 138.636C32.8486 143.425 26.0732 147.176 17.4238 147.176C9.8125 147.176 3.57324 144.324 2.25195 140.24C2.08496 139.722 2 139.182 2 138.636V135.071C4.88037 138.427 10.5981 140.537 17.4238 140.537C24.2886 140.537 29.9829 138.372 32.8486 135.052V138.636ZM32.8486 129.698V129.997C32.8486 134.786 26.0732 138.537 17.4238 138.537C9.8125 138.537 3.57324 135.685 2.25195 131.6C2.08496 131.082 2 130.543 2 129.997V129.698V126.432C4.88037 129.788 10.5981 131.898 17.4238 131.898C24.2886 131.898 29.9829 129.733 32.8486 126.413V129.698ZM32.8486 121.058V121.358C32.8486 126.146 26.0732 129.898 17.4238 129.898C9.8125 129.898 3.57422 127.045 2.25195 122.961C2.08496 122.443 2 121.903 2 121.358V121.058V117.792C4.88037 121.148 10.5981 123.258 17.4238 123.258C24.2886 123.258 29.9829 121.093 32.8486 117.773V121.058Z" fill="white"/>
</svg>
